<svg xmlns="http://www.w3.org/2000/svg" width="1516.327" height="500.052" viewBox="0 0 5907 1948">
  <defs>
    <style>
      .cls-1 {
        fill: #f65f3e;
        fill-rule: evenodd;
      }
    </style>
  </defs>
  <path id="entral" class="cls-1" d="M5887.96,786.722l-42.45,70.761c-80.87,131.415-244.64,408.4-349.77,426.587-10.11,2.03-20.21,2.03-28.3,2.03-38.41,0-70.76-14.16-101.09-40.44-46.88-37.76-74.44-87.27-88.14-140.96-65.76,91.67-135.6,169.98-190.9,179.37-10.11,2.03-18.2,2.03-28.3,2.03-107.16,0-186.01-117.27-198.14-228.46-84.91,137.48-181.95,250.7-242.61,250.7-88.95-8.09-153.65-88.96-153.65-204.2,0-54.59,14.15-121.308,46.5-196.113,99.07-222.393,252.72-295.176,343.7-295.176,56.61,2.021,80.87,34.37,90.98,82.892,20.22-52.566,32.35-93,32.35-119.284,56.6,24.261,121.3,76.827,121.3,139.5,0,42.457-28.3,90.979-44.48,131.415-44.48,95.022-88.95,220.375-88.95,268.9,0,34.37,18.19,46.5,40.43,46.5,32.35,0,78.85-26.28,97.04-40.44,65.54-53.05,120.23-116.94,169.66-183.3,16.43-106.1,64.57-203.312,107.36-293.829,88.96-196.11,175.9-388.177,179.94-458.939,0,0,119.28,50.544,119.28,139.5,0,8.087-2.02,18.2-4.04,28.3-58.63,216.328-289.11,610.571-303.26,760.184,0,36.39,18.19,48.52,42.45,48.52,32.35,0,78.85-26.28,97.05-40.44,84.91-68.74,151.63-155.672,212.28-242.607,8.09-12.131,105.13-167.806,115.24-171.85,8.09-4.043,18.2-8.087,28.31-8.087,18.19,0,38.41,18.2,38.41,42.457C5906.16,752.352,5900.09,766.5,5887.96,786.722Zm-966.43-38.414c-62.68,0-115.24,52.566-115.24,52.566-131.42,101.088-248.68,276.976-248.68,333.586,0,12.13,6.07,18.2,16.17,18.2h6.07c44.48-8.09,198.13-186,315.39-329.546a98.188,98.188,0,0,0,8.09-22.24c8.09-18.2,16.18-34.37,22.24-52.566h-4.04Zm-831,1093.772c0,36.39,2.02,72.78,8.09,105.13-62.68-2.02-115.24-10.11-155.68-66.72-28.3-38.41-40.43-90.98-40.43-147.59,0-97.04,32.34-208.24,64.69-295.17,97.05-262.83,287.09-588.334,369.98-768.27-82.89-8.087-246.65-70.761-246.65-70.761-4.04,188.023-131.42,651-349.76,683.351a366.673,366.673,0,0,1-64.7,6.07c-46.5,0-86.94-10.11-127.37-42.46-46.79-38.77-74.12-89.04-87.28-143.78-24.12,33.35-47.41,62.78-68.43,85.15-44.48,48.52-103.11,95.02-169.82,95.02-93,0-159.72-76.82-159.72-161.74,0-113.22,86.93-254.74,131.41-341.675-40.43,40.435-115.24,113.218-192.07,202.175-34.37,76.83-76.82,196.11-76.82,285.07l2.02,28.3s-139.5-40.43-139.5-177.91a178.526,178.526,0,0,1,1.83-24.35q-42,40.17-86.77,78.94c-66.72,58.63-141.53,127.37-230.48,127.37-82.89,0-204.2-70.77-212.29-198.14,6.07-177.91,159.72-365.934,289.11-454.891,52.57-34.37,97.05-62.674,143.55-62.674,54.59,0,147.59,58.63,147.59,131.414,0,133.436-274.96,276.98-369.98,276.98q-15.165,0-24.27-6.065c-14.15,24.266-52.56,99.066-52.56,147.586,0,16.18,4.04,28.31,16.17,34.37,10.11,2.02,20.22,4.05,30.33,4.05,36.39,0,74.8-16.18,105.13-26.29,107.12-52.76,231.93-169.994,329.46-279.726,48.58-103.88,100.06-210.584,103.22-284.341,0,0,119.29,52.565,119.29,139.5l-4.05,26.283-2.02,4.043c70.76-70.761,135.46-133.436,145.57-133.436,20.22,2.022,121.3,24.261,121.3,113.219a151.134,151.134,0,0,1-6.06,40.435c-30.33,101.088-109.18,252.722-153.66,390.2,78.12-14.88,178.28-120.25,259.92-228.428,16.61-98.352,59.7-192.118,104.03-287.123,32.35-66.718,62.68-137.48,93-206.219l-50.54-2.022c-52.57,0-99.07,6.065-133.44,20.218,0,0,2.02-159.719,167.81-159.719,32.35,0,32.35,0,72.78,6.065,28.31-74.8,48.52-135.458,50.54-163.762,0,0,117.27,50.544,117.27,137.479,0,22.24-4.05,26.283-10.11,50.544,38.41,8.087,70.76,10.109,103.11,12.131,0,0-84.92,4.043-90.98,127.37-32.35-4.043-28.31-2.021-60.65-8.087-42.46,105.132-97.05,226.437-143.55,327.525-50.54,109.175-121.3,266.868-121.3,327.528,0,42.45,34.37,56.61,74.8,56.61,44.48,0,95.02-18.2,109.18-30.33,88.95-32.35,220.37-254.742,228.45-584.288-42.45-38.414-62.67-62.675-62.67-107.153,6.06-68.74,58.63-109.175,111.2-109.175,56.61,0,95.02,48.522,103.11,139.5,64.69,26.283,155.67,44.479,250.69,44.479,34.37,0,56.61-2.022,88.96-4.044,36.39,0,66.72,30.326,68.74,68.74,0,50.544-74.8,194.088-101.09,246.654C4296.75,1112.22,4090.53,1526.68,4090.53,1842.08ZM2774.31,722.026c0-6.066-6.07-10.109-20.22-10.109h-4.04c-88.96,18.2-192.07,115.24-242.61,188.023C2622.68,867.592,2774.31,756.4,2774.31,722.026ZM1916.69,1292.26q-153.39,0-246.3-92.92-92.97-92.925-92.93-246.311V337.713q0-155.168,92.93-246.307Q1763.3,0.31,1916.69.282q155.175,0,249.02,91.125,93.795,91.138,93.83,246.307v21.653a24.012,24.012,0,0,1-6.32,16.241,19.664,19.664,0,0,1-15.34,7.217l-167.81,7.218q-21.66,0-21.65-21.653V323.278q0-63.143-36.09-102.854-36.12-39.669-95.64-39.7-57.765,0-93.83,39.7-36.12,39.713-36.09,102.854V969.269q0,63.181,36.09,102.851,36.075,39.72,93.83,39.7,59.55,0,95.64-39.7,36.075-39.66,36.09-102.851V924.158a21.555,21.555,0,0,1,21.65-21.654l167.81,7.218a21.572,21.572,0,0,1,21.66,21.653v21.654q0,153.391-93.83,246.311Q2071.855,1292.3,1916.69,1292.26Zm-783.13,0q-155.205,0-248.108-100.14-92.958-100.155-92.929-264.353V36.371a20.854,20.854,0,0,1,6.315-15.338,20.873,20.873,0,0,1,15.338-6.316H980.185a21.566,21.566,0,0,1,21.655,21.653V949.42q0,72.192,36.09,117.29,36.075,45.12,95.63,45.11t95.64-45.11q36.075-45.09,36.09-117.29V36.371a20.846,20.846,0,0,1,6.31-15.338,20.882,20.882,0,0,1,15.34-6.316h166.01a21.554,21.554,0,0,1,21.65,21.653v891.4q0,164.225-93.83,264.353T1133.56,1292.26Zm-793.953,0q-153.392,0-246.307-89.32Q0.343,1113.63.371,965.66V326.886Q0.371,178.95,93.3,89.6,186.216,0.282,339.607.282q153.349,0,248.111,89.32,94.734,89.321,94.734,239.089v70.373A21.565,21.565,0,0,1,660.8,420.718H494.789a21.565,21.565,0,0,1-21.653-21.654V325.082q0-64.961-36.992-104.658-37-39.669-96.537-39.7-59.547,0-95.636,39.7-36.117,39.713-36.089,104.658V967.464q0,64.959,36.089,104.656,36.075,39.72,95.636,39.7,59.547,0,96.537-39.7,36.964-39.66,36.992-104.656V794.238q0-9.009-9.022-9.023H354.043a21.563,21.563,0,0,1-21.654-21.653V631.838a21.565,21.565,0,0,1,21.654-21.654H660.8a21.565,21.565,0,0,1,21.654,21.654V965.66q0,147.975-94.734,237.28Q492.986,1292.265,339.607,1292.26Z"/>
</svg>
