<svg xmlns="http://www.w3.org/2000/svg" width="365.814" height="500.035" viewBox="0 0 2333 3189">
  <path id="G-Orange" style="fill: #f65f3e; fill-rule: evenodd;" d="M2151.89,2582.5q-199.02,243.72-539.09,303.86-135.585,24.015-251.74,11.87-190.38,196.5-490.9,249.68-312.763,55.38-522.143-81.57-209.46-136.875-260.443-427.38-6.2-35.325-12.17-115.2L2.705,1168.77Q-17.536,824.348,179.6,581,376.619,337.73,720.648,276.786q133.625-23.658,249.1-11.117Q1159.022,69.143,1463.29,15.239q308.73-54.662,520.53,83.879,211.74,138.552,262.74,428.994,6.21,35.323,12.17,115.206l10.56,151.914a59.846,59.846,0,0,1-13.69,36.822c-8.83,11.048-19.76,17.662-32.76,19.965l-441.7,78.2c-13.07,2.314-24.25-.386-33.68-8.2q-14.13-11.631-13.68-31.978l-8.02-160.456c0.73-10.879-.68-26.817-4.36-47.79q-17.22-98.061-80.34-147.653-63.105-49.53-153.01-33.613-44.01,7.794-79.87,29.349,69.36,109.586,95.74,259.778,6.21,35.323,12.17,115.206l10.56,151.915a59.845,59.845,0,0,1-13.69,36.82c-8.82,11.05-19.75,17.66-32.76,19.97l-182.68,32.34,18.58,360.93,183.13-32.42q19.98-3.54,32.47,4.76l-4.69-91.18q-3.435-19.59,9.78-36.13,13.17-16.455,32.77-19.96l672.31-119.04q42.96-7.605,51.27,39.49l37.6,742.02Q2350.9,2338.915,2151.89,2582.5ZM590.085,864.448q-57.6,85.13-52.566,205.582l70.168,1363.53Q616.636,2553.38,680.2,2617q63.515,63.675,161.284,46.31,45.394-8.04,82.013-29.47-67.257-108.225-93.288-256.42-6.2-35.325-12.17-115.21L805.2,2022.86a44.186,44.186,0,0,1-2.48-16.38l-18.344-356.93a43.542,43.542,0,0,1-.032-15.42l-39-726.908a1018.83,1018.83,0,0,1,1.512-145.383c-0.482.083-.96,0.154-1.444,0.24Q647.661,779.386,590.085,864.448ZM1795.93,2093.12l-16.05-320.91c-2.3-13.07-8.7-18.7-19.08-16.86l-168.08,29.76c-10.85,1.92-20.39.37-28.71-4.67l24.09,475.49a1011.349,1011.349,0,0,1-1.62,145.39q99.9-18.555,156.88-102.62Q1800.975,2213.665,1795.93,2093.12Z"/>
  <path id="G-black" style="fill: #272932; fill-rule: evenodd;" d="M1240.99,3149.73q340.065-60.21,539.1-303.86,199.035-243.63,178.84-588.12l-37.6-742.02q-8.265-47.1-51.27-39.49l-672.31,119.04q-19.605,3.465-32.77,19.96-13.23,16.575-9.77,36.13l18.34,356.93q-0.48,20.385,13.68,31.98c9.43,7.81,20.61,10.51,33.68,8.2l168.08-29.76c10.38-1.84,16.79,3.79,19.08,16.86l16.05,320.91q5.01,120.525-52.57,205.58-57.585,85.125-159.23,103.06-97.755,17.31-161.29-46.31-63.585-63.57-72.512-183.44L908.351,1071.85q-5.1-120.5,52.566-205.578,57.614-85.038,155.323-102.37,89.88-15.912,153.01,33.613,63.105,49.531,80.34,147.653c3.68,20.974,5.1,36.911,4.36,47.791l8.03,160.451q-0.48,20.385,13.67,31.98c9.44,7.82,20.62,10.52,33.69,8.2l441.69-78.2c13.01-2.3,23.94-8.92,32.77-19.97a59.872,59.872,0,0,0,13.68-36.82l-10.55-151.912q-6-79.846-12.17-115.206-51-290.41-262.75-428.994-211.74-138.551-520.53-83.878-344,60.906-541.051,304.211Q353.332,826.2,373.537,1170.59l72.7,1354.99q5.916,79.95,12.169,115.21,51.014,290.49,260.444,427.37,209.385,136.98,522.142,81.57h0Z"/>
  <path id="G-white" style="fill: #fff; fill-rule: evenodd;" d="M917.159,3172.91q340.066-60.21,539.1-303.87,199.035-243.615,178.84-588.11l-37.6-742.02q-8.28-47.1-51.27-39.49L873.92,1618.45q-19.6,3.48-32.767,19.97-13.244,16.575-9.777,36.13l18.344,356.93c-0.321,13.59,4.254,24.22,13.676,31.98,9.433,7.81,20.613,10.51,33.683,8.2l168.081-29.76c10.38-1.84,16.78,3.79,19.08,16.85l16.05,320.92q5.01,120.51-52.57,205.58-57.6,85.125-159.234,103.06Q790.736,2705.62,727.2,2642q-63.591-63.585-72.515-183.44L584.519,1095.03q-5.1-120.51,52.566-205.582Q694.7,804.411,792.412,787.079q89.872-15.912,153.009,33.613,63.108,49.531,80.339,147.653c3.68,20.974,5.1,36.915,4.36,47.795l8.03,160.45q-0.5,20.385,13.67,31.98c9.43,7.81,20.61,10.51,33.68,8.2l441.7-78.2c13.01-2.31,23.94-8.92,32.76-19.97a59.845,59.845,0,0,0,13.69-36.82l-10.56-151.915q-5.985-79.846-12.17-115.206-50.985-290.412-262.74-428.994-211.74-138.552-520.532-83.879Q423.644,362.694,226.6,606,29.5,849.375,49.705,1193.77l72.7,1354.99q5.916,79.95,12.17,115.2,51.013,290.505,260.443,427.38,209.385,136.98,522.143,81.57h0Z"/>
</svg>
