<svg width="700" height="700" viewBox="0 0 700 700" fill="none" xmlns="http://www.w3.org/2000/svg">
<g clip-path="url(#clip0_195_2)">
<path d="M352.2 88.2998C545.5 88.2998 609.9 156.7 609.9 350C609.9 448.7 593.4 601.2 593.4 601.4C530.4 662.4 444.6 700 350 700C255.4 700 169.5 662.5 106.6 601.4C106.6 601.3 90.1 448.7 90.1 350C90 156.7 158.9 88.2998 352.2 88.2998Z" fill="#F4F4F4"/>
<path fill-rule="evenodd" clip-rule="evenodd" d="M593.4 601.3V496C593.4 448.4 544.3 374 470.1 372.2C440.7 402.3 399.6 421 354.2 421C308.8 421 267.7 402.3 238.3 372.2C236.2 372.2 234.3 372.2 232.5 372.2C156.8 372.2 106.5 447.9 106.5 496.1V601.4C40.8 537.7 0 448.6 0 349.9C0 156.7 156.7 0 349.9 0C543.1 0 699.8 156.7 699.8 349.9C699.9 448.6 659.1 537.7 593.4 601.3ZM354.2 127.4C281.5 127.4 222.6 186.3 222.6 259C222.6 331.7 281.5 390.6 354.2 390.6C426.9 390.6 485.8 331.7 485.8 259C485.8 186.3 426.9 127.4 354.2 127.4Z" fill="#272932"/>
</g>
<defs>
<clipPath id="clip0_195_2">
<rect width="699.9" height="699.9" fill="white"/>
</clipPath>
</defs>
</svg>
