<svg xmlns="http://www.w3.org/2000/svg" width="699.89" height="699.89" viewBox="0 0 2300 2300">
  <defs>
    <style>
      .cls-1 {
        fill: #f4f4f4;
      }

      .cls-2 {
        fill: #272932;
        fill-rule: evenodd;
      }
    </style>
  </defs>
  <circle id="foreground-color" style="fill: #f4f4f4;" cx="1150" cy="1150" r="1150"/>
  <path id="background-color" style="fill: #272932;fill-rule: evenodd;" d="M1950,1976.11V1630.12c0-156.49-161.35-401.08-405.16-406.88-96.67,98.93-231.59,160.34-380.84,160.34-149.32,0-284.282-61.46-380.969-160.47-6.782.01-13.159,0.01-19.031,0.01-248.742,0-414,248.63-414,407v345.99C134.171,1767.06,0,1474.2,0,1150,0,514.873,514.873,0,1150,0S2300,514.873,2300,1150C2300,1474.2,2165.83,1767.06,1950,1976.11ZM1164,418.731c-238.8,0-432.39,193.588-432.39,432.39S925.2,1283.51,1164,1283.51s432.39-193.59,432.39-432.389S1402.8,418.731,1164,418.731ZM350.005,1976.12m1600,0"/>
</svg>
